<?xml version="1.0" encoding="utf-8" standalone="no"?>
<!DOCTYPE svg PUBLIC "-//W3C//DTD SVG 1.1//EN"
  "http://www.w3.org/Graphics/SVG/1.1/DTD/svg11.dtd">
<svg xmlns:xlink="http://www.w3.org/1999/xlink" width="576pt" height="576pt" viewBox="0 0 576 576" xmlns="http://www.w3.org/2000/svg" version="1.1">
 <metadata>
  <rdf:RDF xmlns:dc="http://purl.org/dc/elements/1.1/" xmlns:cc="http://creativecommons.org/ns#" xmlns:rdf="http://www.w3.org/1999/02/22-rdf-syntax-ns#">
   <cc:Work>
    <dc:type rdf:resource="http://purl.org/dc/dcmitype/StillImage"/>
    <dc:date>2022-12-19T23:14:12.996977</dc:date>
    <dc:format>image/svg+xml</dc:format>
    <dc:creator>
     <cc:Agent>
      <dc:title>Matplotlib v3.5.2, https://matplotlib.org/</dc:title>
     </cc:Agent>
    </dc:creator>
   </cc:Work>
  </rdf:RDF>
 </metadata>
 <defs>
  <style type="text/css">*{stroke-linejoin: round; stroke-linecap: butt}</style>
 </defs>
 <g id="figure_1">
  <g id="patch_1">
   <path d="M 0 576 
L 576 576 
L 576 0 
L 0 0 
z
" style="fill: #ffffff"/>
  </g>
  <g id="axes_1">
   <g id="patch_2">
    <path d="M 72 165.537391 
L 518.4 165.537391 
L 518.4 69.12 
L 72 69.12 
z
" style="fill: #ffffff"/>
   </g>
   <g id="matplotlib.axis_1">
    <g id="xtick_1">
     <g id="line2d_1">
      <path d="M 72 165.537391 
L 72 69.12 
" clip-path="url(#p89491604a0)" style="fill: none; stroke: #b0b0b0; stroke-width: 0.8; stroke-linecap: square"/>
     </g>
     <g id="line2d_2">
      <defs>
       <path id="m42f3f3e54d" d="M 0 0 
L 0 3.5 
" style="stroke: #000000; stroke-width: 0.8"/>
      </defs>
      <g>
       <use xlink:href="#m42f3f3e54d" x="72" y="165.537391" style="stroke: #000000; stroke-width: 0.8"/>
      </g>
     </g>
    </g>
    <g id="xtick_2">
     <g id="line2d_3">
      <path d="M 146.4 165.537391 
L 146.4 69.12 
" clip-path="url(#p89491604a0)" style="fill: none; stroke: #b0b0b0; stroke-width: 0.8; stroke-linecap: square"/>
     </g>
     <g id="line2d_4">
      <g>
       <use xlink:href="#m42f3f3e54d" x="146.4" y="165.537391" style="stroke: #000000; stroke-width: 0.8"/>
      </g>
     </g>
    </g>
    <g id="xtick_3">
     <g id="line2d_5">
      <path d="M 220.8 165.537391 
L 220.8 69.12 
" clip-path="url(#p89491604a0)" style="fill: none; stroke: #b0b0b0; stroke-width: 0.8; stroke-linecap: square"/>
     </g>
     <g id="line2d_6">
      <g>
       <use xlink:href="#m42f3f3e54d" x="220.8" y="165.537391" style="stroke: #000000; stroke-width: 0.8"/>
      </g>
     </g>
    </g>
    <g id="xtick_4">
     <g id="line2d_7">
      <path d="M 295.2 165.537391 
L 295.2 69.12 
" clip-path="url(#p89491604a0)" style="fill: none; stroke: #b0b0b0; stroke-width: 0.8; stroke-linecap: square"/>
     </g>
     <g id="line2d_8">
      <g>
       <use xlink:href="#m42f3f3e54d" x="295.2" y="165.537391" style="stroke: #000000; stroke-width: 0.8"/>
      </g>
     </g>
    </g>
    <g id="xtick_5">
     <g id="line2d_9">
      <path d="M 369.6 165.537391 
L 369.6 69.12 
" clip-path="url(#p89491604a0)" style="fill: none; stroke: #b0b0b0; stroke-width: 0.8; stroke-linecap: square"/>
     </g>
     <g id="line2d_10">
      <g>
       <use xlink:href="#m42f3f3e54d" x="369.6" y="165.537391" style="stroke: #000000; stroke-width: 0.8"/>
      </g>
     </g>
    </g>
    <g id="xtick_6">
     <g id="line2d_11">
      <path d="M 444 165.537391 
L 444 69.12 
" clip-path="url(#p89491604a0)" style="fill: none; stroke: #b0b0b0; stroke-width: 0.8; stroke-linecap: square"/>
     </g>
     <g id="line2d_12">
      <g>
       <use xlink:href="#m42f3f3e54d" x="444" y="165.537391" style="stroke: #000000; stroke-width: 0.8"/>
      </g>
     </g>
    </g>
    <g id="xtick_7">
     <g id="line2d_13">
      <path d="M 518.4 165.537391 
L 518.4 69.12 
" clip-path="url(#p89491604a0)" style="fill: none; stroke: #b0b0b0; stroke-width: 0.8; stroke-linecap: square"/>
     </g>
     <g id="line2d_14">
      <g>
       <use xlink:href="#m42f3f3e54d" x="518.4" y="165.537391" style="stroke: #000000; stroke-width: 0.8"/>
      </g>
     </g>
    </g>
   </g>
   <g id="matplotlib.axis_2">
    <g id="ytick_1">
     <g id="line2d_15">
      <path d="M 72 165.537391 
L 518.4 165.537391 
" clip-path="url(#p89491604a0)" style="fill: none; stroke: #b0b0b0; stroke-width: 0.8; stroke-linecap: square"/>
     </g>
     <g id="line2d_16">
      <defs>
       <path id="m7924d6f5e9" d="M 0 0 
L -3.5 0 
" style="stroke: #000000; stroke-width: 0.8"/>
      </defs>
      <g>
       <use xlink:href="#m7924d6f5e9" x="72" y="165.537391" style="stroke: #000000; stroke-width: 0.8"/>
      </g>
     </g>
     <g id="text_1">
      <!-- $\mathdefault{10^{0}}$ -->
      <g transform="translate(47.4 169.33661)scale(0.1 -0.1)">
       <defs>
        <path id="DejaVuSans-31" d="M 794 531 
L 1825 531 
L 1825 4091 
L 703 3866 
L 703 4441 
L 1819 4666 
L 2450 4666 
L 2450 531 
L 3481 531 
L 3481 0 
L 794 0 
L 794 531 
z
" transform="scale(0.015625)"/>
        <path id="DejaVuSans-30" d="M 2034 4250 
Q 1547 4250 1301 3770 
Q 1056 3291 1056 2328 
Q 1056 1369 1301 889 
Q 1547 409 2034 409 
Q 2525 409 2770 889 
Q 3016 1369 3016 2328 
Q 3016 3291 2770 3770 
Q 2525 4250 2034 4250 
z
M 2034 4750 
Q 2819 4750 3233 4129 
Q 3647 3509 3647 2328 
Q 3647 1150 3233 529 
Q 2819 -91 2034 -91 
Q 1250 -91 836 529 
Q 422 1150 422 2328 
Q 422 3509 836 4129 
Q 1250 4750 2034 4750 
z
" transform="scale(0.015625)"/>
       </defs>
       <use xlink:href="#DejaVuSans-31" transform="translate(0 0.765625)"/>
       <use xlink:href="#DejaVuSans-30" transform="translate(63.623047 0.765625)"/>
       <use xlink:href="#DejaVuSans-30" transform="translate(128.203125 39.046875)scale(0.7)"/>
      </g>
     </g>
    </g>
    <g id="ytick_2">
     <g id="line2d_17">
      <path d="M 72 112.042358 
L 518.4 112.042358 
" clip-path="url(#p89491604a0)" style="fill: none; stroke: #b0b0b0; stroke-width: 0.8; stroke-linecap: square"/>
     </g>
     <g id="line2d_18">
      <g>
       <use xlink:href="#m7924d6f5e9" x="72" y="112.042358" style="stroke: #000000; stroke-width: 0.8"/>
      </g>
     </g>
     <g id="text_2">
      <!-- $\mathdefault{10^{2}}$ -->
      <g transform="translate(47.4 115.841576)scale(0.1 -0.1)">
       <defs>
        <path id="DejaVuSans-32" d="M 1228 531 
L 3431 531 
L 3431 0 
L 469 0 
L 469 531 
Q 828 903 1448 1529 
Q 2069 2156 2228 2338 
Q 2531 2678 2651 2914 
Q 2772 3150 2772 3378 
Q 2772 3750 2511 3984 
Q 2250 4219 1831 4219 
Q 1534 4219 1204 4116 
Q 875 4013 500 3803 
L 500 4441 
Q 881 4594 1212 4672 
Q 1544 4750 1819 4750 
Q 2544 4750 2975 4387 
Q 3406 4025 3406 3419 
Q 3406 3131 3298 2873 
Q 3191 2616 2906 2266 
Q 2828 2175 2409 1742 
Q 1991 1309 1228 531 
z
" transform="scale(0.015625)"/>
       </defs>
       <use xlink:href="#DejaVuSans-31" transform="translate(0 0.765625)"/>
       <use xlink:href="#DejaVuSans-30" transform="translate(63.623047 0.765625)"/>
       <use xlink:href="#DejaVuSans-32" transform="translate(128.203125 39.046875)scale(0.7)"/>
      </g>
     </g>
    </g>
    <g id="text_3">
     <!-- Margin of Safety [-] -->
     <g transform="translate(41.320312 165.693539)rotate(-90)scale(0.1 -0.1)">
      <defs>
       <path id="DejaVuSans-4d" d="M 628 4666 
L 1569 4666 
L 2759 1491 
L 3956 4666 
L 4897 4666 
L 4897 0 
L 4281 0 
L 4281 4097 
L 3078 897 
L 2444 897 
L 1241 4097 
L 1241 0 
L 628 0 
L 628 4666 
z
" transform="scale(0.015625)"/>
       <path id="DejaVuSans-61" d="M 2194 1759 
Q 1497 1759 1228 1600 
Q 959 1441 959 1056 
Q 959 750 1161 570 
Q 1363 391 1709 391 
Q 2188 391 2477 730 
Q 2766 1069 2766 1631 
L 2766 1759 
L 2194 1759 
z
M 3341 1997 
L 3341 0 
L 2766 0 
L 2766 531 
Q 2569 213 2275 61 
Q 1981 -91 1556 -91 
Q 1019 -91 701 211 
Q 384 513 384 1019 
Q 384 1609 779 1909 
Q 1175 2209 1959 2209 
L 2766 2209 
L 2766 2266 
Q 2766 2663 2505 2880 
Q 2244 3097 1772 3097 
Q 1472 3097 1187 3025 
Q 903 2953 641 2809 
L 641 3341 
Q 956 3463 1253 3523 
Q 1550 3584 1831 3584 
Q 2591 3584 2966 3190 
Q 3341 2797 3341 1997 
z
" transform="scale(0.015625)"/>
       <path id="DejaVuSans-72" d="M 2631 2963 
Q 2534 3019 2420 3045 
Q 2306 3072 2169 3072 
Q 1681 3072 1420 2755 
Q 1159 2438 1159 1844 
L 1159 0 
L 581 0 
L 581 3500 
L 1159 3500 
L 1159 2956 
Q 1341 3275 1631 3429 
Q 1922 3584 2338 3584 
Q 2397 3584 2469 3576 
Q 2541 3569 2628 3553 
L 2631 2963 
z
" transform="scale(0.015625)"/>
       <path id="DejaVuSans-67" d="M 2906 1791 
Q 2906 2416 2648 2759 
Q 2391 3103 1925 3103 
Q 1463 3103 1205 2759 
Q 947 2416 947 1791 
Q 947 1169 1205 825 
Q 1463 481 1925 481 
Q 2391 481 2648 825 
Q 2906 1169 2906 1791 
z
M 3481 434 
Q 3481 -459 3084 -895 
Q 2688 -1331 1869 -1331 
Q 1566 -1331 1297 -1286 
Q 1028 -1241 775 -1147 
L 775 -588 
Q 1028 -725 1275 -790 
Q 1522 -856 1778 -856 
Q 2344 -856 2625 -561 
Q 2906 -266 2906 331 
L 2906 616 
Q 2728 306 2450 153 
Q 2172 0 1784 0 
Q 1141 0 747 490 
Q 353 981 353 1791 
Q 353 2603 747 3093 
Q 1141 3584 1784 3584 
Q 2172 3584 2450 3431 
Q 2728 3278 2906 2969 
L 2906 3500 
L 3481 3500 
L 3481 434 
z
" transform="scale(0.015625)"/>
       <path id="DejaVuSans-69" d="M 603 3500 
L 1178 3500 
L 1178 0 
L 603 0 
L 603 3500 
z
M 603 4863 
L 1178 4863 
L 1178 4134 
L 603 4134 
L 603 4863 
z
" transform="scale(0.015625)"/>
       <path id="DejaVuSans-6e" d="M 3513 2113 
L 3513 0 
L 2938 0 
L 2938 2094 
Q 2938 2591 2744 2837 
Q 2550 3084 2163 3084 
Q 1697 3084 1428 2787 
Q 1159 2491 1159 1978 
L 1159 0 
L 581 0 
L 581 3500 
L 1159 3500 
L 1159 2956 
Q 1366 3272 1645 3428 
Q 1925 3584 2291 3584 
Q 2894 3584 3203 3211 
Q 3513 2838 3513 2113 
z
" transform="scale(0.015625)"/>
       <path id="DejaVuSans-20" transform="scale(0.015625)"/>
       <path id="DejaVuSans-6f" d="M 1959 3097 
Q 1497 3097 1228 2736 
Q 959 2375 959 1747 
Q 959 1119 1226 758 
Q 1494 397 1959 397 
Q 2419 397 2687 759 
Q 2956 1122 2956 1747 
Q 2956 2369 2687 2733 
Q 2419 3097 1959 3097 
z
M 1959 3584 
Q 2709 3584 3137 3096 
Q 3566 2609 3566 1747 
Q 3566 888 3137 398 
Q 2709 -91 1959 -91 
Q 1206 -91 779 398 
Q 353 888 353 1747 
Q 353 2609 779 3096 
Q 1206 3584 1959 3584 
z
" transform="scale(0.015625)"/>
       <path id="DejaVuSans-66" d="M 2375 4863 
L 2375 4384 
L 1825 4384 
Q 1516 4384 1395 4259 
Q 1275 4134 1275 3809 
L 1275 3500 
L 2222 3500 
L 2222 3053 
L 1275 3053 
L 1275 0 
L 697 0 
L 697 3053 
L 147 3053 
L 147 3500 
L 697 3500 
L 697 3744 
Q 697 4328 969 4595 
Q 1241 4863 1831 4863 
L 2375 4863 
z
" transform="scale(0.015625)"/>
       <path id="DejaVuSans-53" d="M 3425 4513 
L 3425 3897 
Q 3066 4069 2747 4153 
Q 2428 4238 2131 4238 
Q 1616 4238 1336 4038 
Q 1056 3838 1056 3469 
Q 1056 3159 1242 3001 
Q 1428 2844 1947 2747 
L 2328 2669 
Q 3034 2534 3370 2195 
Q 3706 1856 3706 1288 
Q 3706 609 3251 259 
Q 2797 -91 1919 -91 
Q 1588 -91 1214 -16 
Q 841 59 441 206 
L 441 856 
Q 825 641 1194 531 
Q 1563 422 1919 422 
Q 2459 422 2753 634 
Q 3047 847 3047 1241 
Q 3047 1584 2836 1778 
Q 2625 1972 2144 2069 
L 1759 2144 
Q 1053 2284 737 2584 
Q 422 2884 422 3419 
Q 422 4038 858 4394 
Q 1294 4750 2059 4750 
Q 2388 4750 2728 4690 
Q 3069 4631 3425 4513 
z
" transform="scale(0.015625)"/>
       <path id="DejaVuSans-65" d="M 3597 1894 
L 3597 1613 
L 953 1613 
Q 991 1019 1311 708 
Q 1631 397 2203 397 
Q 2534 397 2845 478 
Q 3156 559 3463 722 
L 3463 178 
Q 3153 47 2828 -22 
Q 2503 -91 2169 -91 
Q 1331 -91 842 396 
Q 353 884 353 1716 
Q 353 2575 817 3079 
Q 1281 3584 2069 3584 
Q 2775 3584 3186 3129 
Q 3597 2675 3597 1894 
z
M 3022 2063 
Q 3016 2534 2758 2815 
Q 2500 3097 2075 3097 
Q 1594 3097 1305 2825 
Q 1016 2553 972 2059 
L 3022 2063 
z
" transform="scale(0.015625)"/>
       <path id="DejaVuSans-74" d="M 1172 4494 
L 1172 3500 
L 2356 3500 
L 2356 3053 
L 1172 3053 
L 1172 1153 
Q 1172 725 1289 603 
Q 1406 481 1766 481 
L 2356 481 
L 2356 0 
L 1766 0 
Q 1100 0 847 248 
Q 594 497 594 1153 
L 594 3053 
L 172 3053 
L 172 3500 
L 594 3500 
L 594 4494 
L 1172 4494 
z
" transform="scale(0.015625)"/>
       <path id="DejaVuSans-79" d="M 2059 -325 
Q 1816 -950 1584 -1140 
Q 1353 -1331 966 -1331 
L 506 -1331 
L 506 -850 
L 844 -850 
Q 1081 -850 1212 -737 
Q 1344 -625 1503 -206 
L 1606 56 
L 191 3500 
L 800 3500 
L 1894 763 
L 2988 3500 
L 3597 3500 
L 2059 -325 
z
" transform="scale(0.015625)"/>
       <path id="DejaVuSans-5b" d="M 550 4863 
L 1875 4863 
L 1875 4416 
L 1125 4416 
L 1125 -397 
L 1875 -397 
L 1875 -844 
L 550 -844 
L 550 4863 
z
" transform="scale(0.015625)"/>
       <path id="DejaVuSans-2d" d="M 313 2009 
L 1997 2009 
L 1997 1497 
L 313 1497 
L 313 2009 
z
" transform="scale(0.015625)"/>
       <path id="DejaVuSans-5d" d="M 1947 4863 
L 1947 -844 
L 622 -844 
L 622 -397 
L 1369 -397 
L 1369 4416 
L 622 4416 
L 622 4863 
L 1947 4863 
z
" transform="scale(0.015625)"/>
      </defs>
      <use xlink:href="#DejaVuSans-4d"/>
      <use xlink:href="#DejaVuSans-61" x="86.279297"/>
      <use xlink:href="#DejaVuSans-72" x="147.558594"/>
      <use xlink:href="#DejaVuSans-67" x="186.921875"/>
      <use xlink:href="#DejaVuSans-69" x="250.398438"/>
      <use xlink:href="#DejaVuSans-6e" x="278.181641"/>
      <use xlink:href="#DejaVuSans-20" x="341.560547"/>
      <use xlink:href="#DejaVuSans-6f" x="373.347656"/>
      <use xlink:href="#DejaVuSans-66" x="434.529297"/>
      <use xlink:href="#DejaVuSans-20" x="469.734375"/>
      <use xlink:href="#DejaVuSans-53" x="501.521484"/>
      <use xlink:href="#DejaVuSans-61" x="564.998047"/>
      <use xlink:href="#DejaVuSans-66" x="626.277344"/>
      <use xlink:href="#DejaVuSans-65" x="661.482422"/>
      <use xlink:href="#DejaVuSans-74" x="723.005859"/>
      <use xlink:href="#DejaVuSans-79" x="762.214844"/>
      <use xlink:href="#DejaVuSans-20" x="821.394531"/>
      <use xlink:href="#DejaVuSans-5b" x="853.181641"/>
      <use xlink:href="#DejaVuSans-2d" x="892.195312"/>
      <use xlink:href="#DejaVuSans-5d" x="928.279297"/>
     </g>
    </g>
   </g>
   <g id="line2d_19">
    <path d="M 72 160.921494 
L 76.501576 160.820729 
L 81.003152 160.714876 
L 85.504727 160.607068 
L 90.006303 160.496392 
L 94.507879 160.383578 
L 99.009455 160.268182 
L 103.51103 160.150283 
L 108.012606 160.030247 
L 112.514182 159.907282 
L 117.015758 159.781618 
L 121.517333 159.653379 
L 126.018909 159.52255 
L 130.520485 159.388923 
L 135.022061 159.252289 
L 139.523636 159.113022 
L 144.025212 158.970578 
L 148.526788 158.825031 
L 153.028364 158.676461 
L 157.529939 158.524757 
L 162.031515 158.369803 
L 166.533091 158.211511 
L 171.034667 158.049731 
L 175.536242 157.88439 
L 180.037818 157.715359 
L 184.539394 157.542538 
L 189.04097 157.365785 
L 193.542545 157.18522 
L 198.044121 157.000667 
L 202.545697 156.811889 
L 207.047273 156.618781 
L 211.548848 156.421141 
L 216.050424 156.218905 
L 220.552 156.011942 
L 225.053576 155.80008 
L 229.555152 155.583171 
L 234.056727 155.36105 
L 238.558303 155.133601 
L 243.059879 154.900517 
L 247.561455 154.661516 
L 252.06303 154.416499 
L 256.564606 154.165271 
L 261.066182 153.907558 
L 265.567758 153.643042 
L 270.069333 153.371531 
L 274.570909 153.092798 
L 279.072485 152.806502 
L 283.574061 152.512364 
L 288.075636 152.210028 
L 292.577212 151.899075 
L 297.078788 151.579129 
L 301.580364 151.249868 
L 306.081939 150.91092 
L 310.583515 150.561749 
L 315.085091 150.201862 
L 319.586667 149.830745 
L 324.088242 149.447786 
L 328.589818 149.052413 
L 333.091394 148.643974 
L 337.59297 148.221734 
L 342.094545 147.785031 
L 346.596121 147.333246 
L 351.097697 146.865341 
L 355.599273 146.380329 
L 360.100848 145.877196 
L 364.602424 145.354868 
L 369.104 144.812162 
L 373.605576 144.247731 
L 378.107152 143.660123 
L 382.608727 143.047757 
L 387.110303 142.408911 
L 391.611879 141.741714 
L 396.113455 141.043962 
L 400.61503 140.313157 
L 405.116606 139.546737 
L 409.618182 138.741832 
L 414.119758 137.895219 
L 418.621333 137.003027 
L 423.122909 136.060866 
L 427.624485 135.063969 
L 432.126061 134.006888 
L 436.627636 132.883403 
L 441.129212 131.685829 
L 445.630788 130.405372 
L 450.132364 129.031726 
L 454.633939 127.552605 
L 459.135515 125.952954 
L 463.637091 124.214765 
L 468.138667 122.315484 
L 472.640242 120.226504 
L 477.141818 117.911015 
L 481.643394 115.321002 
L 486.14497 112.391108 
L 490.646545 109.027809 
L 495.148121 105.088346 
L 499.649697 100.340285 
L 504.151273 94.365125 
L 508.652848 86.274238 
L 513.154424 73.4915 
" clip-path="url(#p89491604a0)" style="fill: none; stroke: #1f77b4; stroke-width: 1.5; stroke-linecap: square"/>
   </g>
   <g id="patch_3">
    <path d="M 72 165.537391 
L 72 69.12 
" style="fill: none; stroke: #000000; stroke-width: 0.8; stroke-linejoin: miter; stroke-linecap: square"/>
   </g>
   <g id="patch_4">
    <path d="M 518.4 165.537391 
L 518.4 69.12 
" style="fill: none; stroke: #000000; stroke-width: 0.8; stroke-linejoin: miter; stroke-linecap: square"/>
   </g>
   <g id="patch_5">
    <path d="M 72 165.537391 
L 518.4 165.537391 
" style="fill: none; stroke: #000000; stroke-width: 0.8; stroke-linejoin: miter; stroke-linecap: square"/>
   </g>
   <g id="patch_6">
    <path d="M 72 69.12 
L 518.4 69.12 
" style="fill: none; stroke: #000000; stroke-width: 0.8; stroke-linejoin: miter; stroke-linecap: square"/>
   </g>
   <g id="text_4">
    <!-- Stringer  -->
    <g transform="translate(269.228437 63.12)scale(0.12 -0.12)">
     <use xlink:href="#DejaVuSans-53"/>
     <use xlink:href="#DejaVuSans-74" x="63.476562"/>
     <use xlink:href="#DejaVuSans-72" x="102.685547"/>
     <use xlink:href="#DejaVuSans-69" x="143.798828"/>
     <use xlink:href="#DejaVuSans-6e" x="171.582031"/>
     <use xlink:href="#DejaVuSans-67" x="234.960938"/>
     <use xlink:href="#DejaVuSans-65" x="298.4375"/>
     <use xlink:href="#DejaVuSans-72" x="359.960938"/>
     <use xlink:href="#DejaVuSans-20" x="401.074219"/>
    </g>
   </g>
  </g>
  <g id="axes_2">
   <g id="patch_7">
    <path d="M 72 281.238261 
L 518.4 281.238261 
L 518.4 184.82087 
L 72 184.82087 
z
" style="fill: #ffffff"/>
   </g>
   <g id="matplotlib.axis_3">
    <g id="xtick_8">
     <g id="line2d_20">
      <path d="M 72 281.238261 
L 72 184.82087 
" clip-path="url(#p7094178680)" style="fill: none; stroke: #b0b0b0; stroke-width: 0.8; stroke-linecap: square"/>
     </g>
     <g id="line2d_21">
      <g>
       <use xlink:href="#m42f3f3e54d" x="72" y="281.238261" style="stroke: #000000; stroke-width: 0.8"/>
      </g>
     </g>
    </g>
    <g id="xtick_9">
     <g id="line2d_22">
      <path d="M 146.4 281.238261 
L 146.4 184.82087 
" clip-path="url(#p7094178680)" style="fill: none; stroke: #b0b0b0; stroke-width: 0.8; stroke-linecap: square"/>
     </g>
     <g id="line2d_23">
      <g>
       <use xlink:href="#m42f3f3e54d" x="146.4" y="281.238261" style="stroke: #000000; stroke-width: 0.8"/>
      </g>
     </g>
    </g>
    <g id="xtick_10">
     <g id="line2d_24">
      <path d="M 220.8 281.238261 
L 220.8 184.82087 
" clip-path="url(#p7094178680)" style="fill: none; stroke: #b0b0b0; stroke-width: 0.8; stroke-linecap: square"/>
     </g>
     <g id="line2d_25">
      <g>
       <use xlink:href="#m42f3f3e54d" x="220.8" y="281.238261" style="stroke: #000000; stroke-width: 0.8"/>
      </g>
     </g>
    </g>
    <g id="xtick_11">
     <g id="line2d_26">
      <path d="M 295.2 281.238261 
L 295.2 184.82087 
" clip-path="url(#p7094178680)" style="fill: none; stroke: #b0b0b0; stroke-width: 0.8; stroke-linecap: square"/>
     </g>
     <g id="line2d_27">
      <g>
       <use xlink:href="#m42f3f3e54d" x="295.2" y="281.238261" style="stroke: #000000; stroke-width: 0.8"/>
      </g>
     </g>
    </g>
    <g id="xtick_12">
     <g id="line2d_28">
      <path d="M 369.6 281.238261 
L 369.6 184.82087 
" clip-path="url(#p7094178680)" style="fill: none; stroke: #b0b0b0; stroke-width: 0.8; stroke-linecap: square"/>
     </g>
     <g id="line2d_29">
      <g>
       <use xlink:href="#m42f3f3e54d" x="369.6" y="281.238261" style="stroke: #000000; stroke-width: 0.8"/>
      </g>
     </g>
    </g>
    <g id="xtick_13">
     <g id="line2d_30">
      <path d="M 444 281.238261 
L 444 184.82087 
" clip-path="url(#p7094178680)" style="fill: none; stroke: #b0b0b0; stroke-width: 0.8; stroke-linecap: square"/>
     </g>
     <g id="line2d_31">
      <g>
       <use xlink:href="#m42f3f3e54d" x="444" y="281.238261" style="stroke: #000000; stroke-width: 0.8"/>
      </g>
     </g>
    </g>
    <g id="xtick_14">
     <g id="line2d_32">
      <path d="M 518.4 281.238261 
L 518.4 184.82087 
" clip-path="url(#p7094178680)" style="fill: none; stroke: #b0b0b0; stroke-width: 0.8; stroke-linecap: square"/>
     </g>
     <g id="line2d_33">
      <g>
       <use xlink:href="#m42f3f3e54d" x="518.4" y="281.238261" style="stroke: #000000; stroke-width: 0.8"/>
      </g>
     </g>
    </g>
   </g>
   <g id="matplotlib.axis_4">
    <g id="ytick_3">
     <g id="line2d_34">
      <path d="M 72 281.238261 
L 518.4 281.238261 
" clip-path="url(#p7094178680)" style="fill: none; stroke: #b0b0b0; stroke-width: 0.8; stroke-linecap: square"/>
     </g>
     <g id="line2d_35">
      <g>
       <use xlink:href="#m7924d6f5e9" x="72" y="281.238261" style="stroke: #000000; stroke-width: 0.8"/>
      </g>
     </g>
     <g id="text_5">
      <!-- $\mathdefault{10^{0}}$ -->
      <g transform="translate(47.4 285.03748)scale(0.1 -0.1)">
       <use xlink:href="#DejaVuSans-31" transform="translate(0 0.765625)"/>
       <use xlink:href="#DejaVuSans-30" transform="translate(63.623047 0.765625)"/>
       <use xlink:href="#DejaVuSans-30" transform="translate(128.203125 39.046875)scale(0.7)"/>
      </g>
     </g>
    </g>
    <g id="ytick_4">
     <g id="line2d_36">
      <path d="M 72 232.574803 
L 518.4 232.574803 
" clip-path="url(#p7094178680)" style="fill: none; stroke: #b0b0b0; stroke-width: 0.8; stroke-linecap: square"/>
     </g>
     <g id="line2d_37">
      <g>
       <use xlink:href="#m7924d6f5e9" x="72" y="232.574803" style="stroke: #000000; stroke-width: 0.8"/>
      </g>
     </g>
     <g id="text_6">
      <!-- $\mathdefault{10^{2}}$ -->
      <g transform="translate(47.4 236.374021)scale(0.1 -0.1)">
       <use xlink:href="#DejaVuSans-31" transform="translate(0 0.765625)"/>
       <use xlink:href="#DejaVuSans-30" transform="translate(63.623047 0.765625)"/>
       <use xlink:href="#DejaVuSans-32" transform="translate(128.203125 39.046875)scale(0.7)"/>
      </g>
     </g>
    </g>
    <g id="text_7">
     <!-- Margin of Safety [-] -->
     <g transform="translate(41.320312 281.394409)rotate(-90)scale(0.1 -0.1)">
      <use xlink:href="#DejaVuSans-4d"/>
      <use xlink:href="#DejaVuSans-61" x="86.279297"/>
      <use xlink:href="#DejaVuSans-72" x="147.558594"/>
      <use xlink:href="#DejaVuSans-67" x="186.921875"/>
      <use xlink:href="#DejaVuSans-69" x="250.398438"/>
      <use xlink:href="#DejaVuSans-6e" x="278.181641"/>
      <use xlink:href="#DejaVuSans-20" x="341.560547"/>
      <use xlink:href="#DejaVuSans-6f" x="373.347656"/>
      <use xlink:href="#DejaVuSans-66" x="434.529297"/>
      <use xlink:href="#DejaVuSans-20" x="469.734375"/>
      <use xlink:href="#DejaVuSans-53" x="501.521484"/>
      <use xlink:href="#DejaVuSans-61" x="564.998047"/>
      <use xlink:href="#DejaVuSans-66" x="626.277344"/>
      <use xlink:href="#DejaVuSans-65" x="661.482422"/>
      <use xlink:href="#DejaVuSans-74" x="723.005859"/>
      <use xlink:href="#DejaVuSans-79" x="762.214844"/>
      <use xlink:href="#DejaVuSans-20" x="821.394531"/>
      <use xlink:href="#DejaVuSans-5b" x="853.181641"/>
      <use xlink:href="#DejaVuSans-2d" x="892.195312"/>
      <use xlink:href="#DejaVuSans-5d" x="928.279297"/>
     </g>
    </g>
   </g>
   <g id="line2d_38">
    <path d="M 72 277.030946 
L 76.501576 276.939045 
L 81.003152 276.842495 
L 85.504727 276.744152 
L 90.006303 276.643184 
L 94.507879 276.540259 
L 99.009455 276.43497 
L 103.51103 276.32739 
L 108.012606 276.217853 
L 112.514182 276.105637 
L 117.015758 275.99095 
L 121.517333 275.873905 
L 126.018909 275.75449 
L 130.520485 275.632512 
L 135.022061 275.507783 
L 139.523636 275.380641 
L 144.025212 275.250591 
L 148.526788 275.117699 
L 153.028364 274.982037 
L 157.529939 274.843505 
L 162.031515 274.701994 
L 166.533091 274.557424 
L 171.034667 274.409657 
L 175.536242 274.258626 
L 180.037818 274.104211 
L 184.539394 273.946321 
L 189.04097 273.784824 
L 193.542545 273.61983 
L 198.044121 273.451175 
L 202.545697 273.278641 
L 207.047273 273.102132 
L 211.548848 272.921462 
L 216.050424 272.736569 
L 220.552 272.547333 
L 225.053576 272.353594 
L 229.555152 272.155213 
L 234.056727 271.952039 
L 238.558303 271.743962 
L 243.059879 271.530699 
L 247.561455 271.31199 
L 252.06303 271.087739 
L 256.564606 270.857764 
L 261.066182 270.621812 
L 265.567758 270.379586 
L 270.069333 270.130907 
L 274.570909 269.87556 
L 279.072485 269.613229 
L 283.574061 269.343651 
L 288.075636 269.066494 
L 292.577212 268.781365 
L 297.078788 268.487912 
L 301.580364 268.185832 
L 306.081939 267.874772 
L 310.583515 267.55423 
L 315.085091 267.223741 
L 319.586667 266.88282 
L 324.088242 266.530889 
L 328.589818 266.167407 
L 333.091394 265.791754 
L 337.59297 265.403232 
L 342.094545 265.001211 
L 346.596121 264.585095 
L 351.097697 264.153897 
L 355.599273 263.706674 
L 360.100848 263.242453 
L 364.602424 262.760201 
L 369.104 262.258774 
L 373.605576 261.736872 
L 378.107152 261.193088 
L 382.608727 260.625885 
L 387.110303 260.033581 
L 391.611879 259.414345 
L 396.113455 258.766014 
L 400.61503 258.08613 
L 405.116606 257.372152 
L 409.618182 256.621223 
L 414.119758 255.830116 
L 418.621333 254.994953 
L 423.122909 254.111307 
L 427.624485 253.174332 
L 432.126061 252.178457 
L 436.627636 251.117281 
L 441.129212 249.982867 
L 445.630788 248.76605 
L 450.132364 247.456003 
L 454.633939 246.039706 
L 459.135515 244.501064 
L 463.637091 242.82062 
L 468.138667 240.973794 
L 472.640242 238.929117 
L 477.141818 236.645421 
L 481.643394 234.067813 
L 486.14497 231.120122 
L 490.646545 227.69272 
L 495.148121 223.61962 
L 499.649697 218.63177 
L 504.151273 212.244638 
L 508.652848 203.427759 
L 513.154424 189.211826 
" clip-path="url(#p7094178680)" style="fill: none; stroke: #1f77b4; stroke-width: 1.5; stroke-linecap: square"/>
   </g>
   <g id="patch_8">
    <path d="M 72 281.238261 
L 72 184.82087 
" style="fill: none; stroke: #000000; stroke-width: 0.8; stroke-linejoin: miter; stroke-linecap: square"/>
   </g>
   <g id="patch_9">
    <path d="M 518.4 281.238261 
L 518.4 184.82087 
" style="fill: none; stroke: #000000; stroke-width: 0.8; stroke-linejoin: miter; stroke-linecap: square"/>
   </g>
   <g id="patch_10">
    <path d="M 72 281.238261 
L 518.4 281.238261 
" style="fill: none; stroke: #000000; stroke-width: 0.8; stroke-linejoin: miter; stroke-linecap: square"/>
   </g>
   <g id="patch_11">
    <path d="M 72 184.82087 
L 518.4 184.82087 
" style="fill: none; stroke: #000000; stroke-width: 0.8; stroke-linejoin: miter; stroke-linecap: square"/>
   </g>
   <g id="text_8">
    <!-- Skin -->
    <g transform="translate(282.447187 178.82087)scale(0.12 -0.12)">
     <defs>
      <path id="DejaVuSans-6b" d="M 581 4863 
L 1159 4863 
L 1159 1991 
L 2875 3500 
L 3609 3500 
L 1753 1863 
L 3688 0 
L 2938 0 
L 1159 1709 
L 1159 0 
L 581 0 
L 581 4863 
z
" transform="scale(0.015625)"/>
     </defs>
     <use xlink:href="#DejaVuSans-53"/>
     <use xlink:href="#DejaVuSans-6b" x="63.476562"/>
     <use xlink:href="#DejaVuSans-69" x="121.386719"/>
     <use xlink:href="#DejaVuSans-6e" x="149.169922"/>
    </g>
   </g>
  </g>
  <g id="axes_3">
   <g id="patch_12">
    <path d="M 72 396.93913 
L 518.4 396.93913 
L 518.4 300.521739 
L 72 300.521739 
z
" style="fill: #ffffff"/>
   </g>
   <g id="matplotlib.axis_5">
    <g id="xtick_15">
     <g id="line2d_39">
      <path d="M 72 396.93913 
L 72 300.521739 
" clip-path="url(#pf462e9793b)" style="fill: none; stroke: #b0b0b0; stroke-width: 0.8; stroke-linecap: square"/>
     </g>
     <g id="line2d_40">
      <g>
       <use xlink:href="#m42f3f3e54d" x="72" y="396.93913" style="stroke: #000000; stroke-width: 0.8"/>
      </g>
     </g>
    </g>
    <g id="xtick_16">
     <g id="line2d_41">
      <path d="M 146.4 396.93913 
L 146.4 300.521739 
" clip-path="url(#pf462e9793b)" style="fill: none; stroke: #b0b0b0; stroke-width: 0.8; stroke-linecap: square"/>
     </g>
     <g id="line2d_42">
      <g>
       <use xlink:href="#m42f3f3e54d" x="146.4" y="396.93913" style="stroke: #000000; stroke-width: 0.8"/>
      </g>
     </g>
    </g>
    <g id="xtick_17">
     <g id="line2d_43">
      <path d="M 220.8 396.93913 
L 220.8 300.521739 
" clip-path="url(#pf462e9793b)" style="fill: none; stroke: #b0b0b0; stroke-width: 0.8; stroke-linecap: square"/>
     </g>
     <g id="line2d_44">
      <g>
       <use xlink:href="#m42f3f3e54d" x="220.8" y="396.93913" style="stroke: #000000; stroke-width: 0.8"/>
      </g>
     </g>
    </g>
    <g id="xtick_18">
     <g id="line2d_45">
      <path d="M 295.2 396.93913 
L 295.2 300.521739 
" clip-path="url(#pf462e9793b)" style="fill: none; stroke: #b0b0b0; stroke-width: 0.8; stroke-linecap: square"/>
     </g>
     <g id="line2d_46">
      <g>
       <use xlink:href="#m42f3f3e54d" x="295.2" y="396.93913" style="stroke: #000000; stroke-width: 0.8"/>
      </g>
     </g>
    </g>
    <g id="xtick_19">
     <g id="line2d_47">
      <path d="M 369.6 396.93913 
L 369.6 300.521739 
" clip-path="url(#pf462e9793b)" style="fill: none; stroke: #b0b0b0; stroke-width: 0.8; stroke-linecap: square"/>
     </g>
     <g id="line2d_48">
      <g>
       <use xlink:href="#m42f3f3e54d" x="369.6" y="396.93913" style="stroke: #000000; stroke-width: 0.8"/>
      </g>
     </g>
    </g>
    <g id="xtick_20">
     <g id="line2d_49">
      <path d="M 444 396.93913 
L 444 300.521739 
" clip-path="url(#pf462e9793b)" style="fill: none; stroke: #b0b0b0; stroke-width: 0.8; stroke-linecap: square"/>
     </g>
     <g id="line2d_50">
      <g>
       <use xlink:href="#m42f3f3e54d" x="444" y="396.93913" style="stroke: #000000; stroke-width: 0.8"/>
      </g>
     </g>
    </g>
    <g id="xtick_21">
     <g id="line2d_51">
      <path d="M 518.4 396.93913 
L 518.4 300.521739 
" clip-path="url(#pf462e9793b)" style="fill: none; stroke: #b0b0b0; stroke-width: 0.8; stroke-linecap: square"/>
     </g>
     <g id="line2d_52">
      <g>
       <use xlink:href="#m42f3f3e54d" x="518.4" y="396.93913" style="stroke: #000000; stroke-width: 0.8"/>
      </g>
     </g>
    </g>
   </g>
   <g id="matplotlib.axis_6">
    <g id="ytick_5">
     <g id="line2d_53">
      <path d="M 72 396.93913 
L 518.4 396.93913 
" clip-path="url(#pf462e9793b)" style="fill: none; stroke: #b0b0b0; stroke-width: 0.8; stroke-linecap: square"/>
     </g>
     <g id="line2d_54">
      <g>
       <use xlink:href="#m7924d6f5e9" x="72" y="396.93913" style="stroke: #000000; stroke-width: 0.8"/>
      </g>
     </g>
     <g id="text_9">
      <!-- $\mathdefault{10^{0}}$ -->
      <g transform="translate(47.4 400.738349)scale(0.1 -0.1)">
       <use xlink:href="#DejaVuSans-31" transform="translate(0 0.765625)"/>
       <use xlink:href="#DejaVuSans-30" transform="translate(63.623047 0.765625)"/>
       <use xlink:href="#DejaVuSans-30" transform="translate(128.203125 39.046875)scale(0.7)"/>
      </g>
     </g>
    </g>
    <g id="ytick_6">
     <g id="line2d_55">
      <path d="M 72 356.713672 
L 518.4 356.713672 
" clip-path="url(#pf462e9793b)" style="fill: none; stroke: #b0b0b0; stroke-width: 0.8; stroke-linecap: square"/>
     </g>
     <g id="line2d_56">
      <g>
       <use xlink:href="#m7924d6f5e9" x="72" y="356.713672" style="stroke: #000000; stroke-width: 0.8"/>
      </g>
     </g>
     <g id="text_10">
      <!-- $\mathdefault{10^{1}}$ -->
      <g transform="translate(47.4 360.512891)scale(0.1 -0.1)">
       <use xlink:href="#DejaVuSans-31" transform="translate(0 0.684375)"/>
       <use xlink:href="#DejaVuSans-30" transform="translate(63.623047 0.684375)"/>
       <use xlink:href="#DejaVuSans-31" transform="translate(128.203125 38.965625)scale(0.7)"/>
      </g>
     </g>
    </g>
    <g id="ytick_7">
     <g id="line2d_57">
      <path d="M 72 316.488214 
L 518.4 316.488214 
" clip-path="url(#pf462e9793b)" style="fill: none; stroke: #b0b0b0; stroke-width: 0.8; stroke-linecap: square"/>
     </g>
     <g id="line2d_58">
      <g>
       <use xlink:href="#m7924d6f5e9" x="72" y="316.488214" style="stroke: #000000; stroke-width: 0.8"/>
      </g>
     </g>
     <g id="text_11">
      <!-- $\mathdefault{10^{2}}$ -->
      <g transform="translate(47.4 320.287433)scale(0.1 -0.1)">
       <use xlink:href="#DejaVuSans-31" transform="translate(0 0.765625)"/>
       <use xlink:href="#DejaVuSans-30" transform="translate(63.623047 0.765625)"/>
       <use xlink:href="#DejaVuSans-32" transform="translate(128.203125 39.046875)scale(0.7)"/>
      </g>
     </g>
    </g>
    <g id="ytick_8">
     <g id="line2d_59">
      <defs>
       <path id="m9d66d98a82" d="M 0 0 
L -2 0 
" style="stroke: #000000; stroke-width: 0.6"/>
      </defs>
      <g>
       <use xlink:href="#m9d66d98a82" x="72" y="384.830061" style="stroke: #000000; stroke-width: 0.6"/>
      </g>
     </g>
    </g>
    <g id="ytick_9">
     <g id="line2d_60">
      <g>
       <use xlink:href="#m9d66d98a82" x="72" y="377.746709" style="stroke: #000000; stroke-width: 0.6"/>
      </g>
     </g>
    </g>
    <g id="ytick_10">
     <g id="line2d_61">
      <g>
       <use xlink:href="#m9d66d98a82" x="72" y="372.720992" style="stroke: #000000; stroke-width: 0.6"/>
      </g>
     </g>
    </g>
    <g id="ytick_11">
     <g id="line2d_62">
      <g>
       <use xlink:href="#m9d66d98a82" x="72" y="368.822742" style="stroke: #000000; stroke-width: 0.6"/>
      </g>
     </g>
    </g>
    <g id="ytick_12">
     <g id="line2d_63">
      <g>
       <use xlink:href="#m9d66d98a82" x="72" y="365.63764" style="stroke: #000000; stroke-width: 0.6"/>
      </g>
     </g>
    </g>
    <g id="ytick_13">
     <g id="line2d_64">
      <g>
       <use xlink:href="#m9d66d98a82" x="72" y="362.944675" style="stroke: #000000; stroke-width: 0.6"/>
      </g>
     </g>
    </g>
    <g id="ytick_14">
     <g id="line2d_65">
      <g>
       <use xlink:href="#m9d66d98a82" x="72" y="360.611922" style="stroke: #000000; stroke-width: 0.6"/>
      </g>
     </g>
    </g>
    <g id="ytick_15">
     <g id="line2d_66">
      <g>
       <use xlink:href="#m9d66d98a82" x="72" y="358.554288" style="stroke: #000000; stroke-width: 0.6"/>
      </g>
     </g>
    </g>
    <g id="ytick_16">
     <g id="line2d_67">
      <g>
       <use xlink:href="#m9d66d98a82" x="72" y="344.604603" style="stroke: #000000; stroke-width: 0.6"/>
      </g>
     </g>
    </g>
    <g id="ytick_17">
     <g id="line2d_68">
      <g>
       <use xlink:href="#m9d66d98a82" x="72" y="337.521251" style="stroke: #000000; stroke-width: 0.6"/>
      </g>
     </g>
    </g>
    <g id="ytick_18">
     <g id="line2d_69">
      <g>
       <use xlink:href="#m9d66d98a82" x="72" y="332.495533" style="stroke: #000000; stroke-width: 0.6"/>
      </g>
     </g>
    </g>
    <g id="ytick_19">
     <g id="line2d_70">
      <g>
       <use xlink:href="#m9d66d98a82" x="72" y="328.597284" style="stroke: #000000; stroke-width: 0.6"/>
      </g>
     </g>
    </g>
    <g id="ytick_20">
     <g id="line2d_71">
      <g>
       <use xlink:href="#m9d66d98a82" x="72" y="325.412182" style="stroke: #000000; stroke-width: 0.6"/>
      </g>
     </g>
    </g>
    <g id="ytick_21">
     <g id="line2d_72">
      <g>
       <use xlink:href="#m9d66d98a82" x="72" y="322.719217" style="stroke: #000000; stroke-width: 0.6"/>
      </g>
     </g>
    </g>
    <g id="ytick_22">
     <g id="line2d_73">
      <g>
       <use xlink:href="#m9d66d98a82" x="72" y="320.386464" style="stroke: #000000; stroke-width: 0.6"/>
      </g>
     </g>
    </g>
    <g id="ytick_23">
     <g id="line2d_74">
      <g>
       <use xlink:href="#m9d66d98a82" x="72" y="318.32883" style="stroke: #000000; stroke-width: 0.6"/>
      </g>
     </g>
    </g>
    <g id="ytick_24">
     <g id="line2d_75">
      <g>
       <use xlink:href="#m9d66d98a82" x="72" y="304.379145" style="stroke: #000000; stroke-width: 0.6"/>
      </g>
     </g>
    </g>
    <g id="text_12">
     <!-- Margin of Safety [-] -->
     <g transform="translate(41.320312 397.095279)rotate(-90)scale(0.1 -0.1)">
      <use xlink:href="#DejaVuSans-4d"/>
      <use xlink:href="#DejaVuSans-61" x="86.279297"/>
      <use xlink:href="#DejaVuSans-72" x="147.558594"/>
      <use xlink:href="#DejaVuSans-67" x="186.921875"/>
      <use xlink:href="#DejaVuSans-69" x="250.398438"/>
      <use xlink:href="#DejaVuSans-6e" x="278.181641"/>
      <use xlink:href="#DejaVuSans-20" x="341.560547"/>
      <use xlink:href="#DejaVuSans-6f" x="373.347656"/>
      <use xlink:href="#DejaVuSans-66" x="434.529297"/>
      <use xlink:href="#DejaVuSans-20" x="469.734375"/>
      <use xlink:href="#DejaVuSans-53" x="501.521484"/>
      <use xlink:href="#DejaVuSans-61" x="564.998047"/>
      <use xlink:href="#DejaVuSans-66" x="626.277344"/>
      <use xlink:href="#DejaVuSans-65" x="661.482422"/>
      <use xlink:href="#DejaVuSans-74" x="723.005859"/>
      <use xlink:href="#DejaVuSans-79" x="762.214844"/>
      <use xlink:href="#DejaVuSans-20" x="821.394531"/>
      <use xlink:href="#DejaVuSans-5b" x="853.181641"/>
      <use xlink:href="#DejaVuSans-2d" x="892.195312"/>
      <use xlink:href="#DejaVuSans-5d" x="928.279297"/>
     </g>
    </g>
   </g>
   <g id="line2d_76">
    <path d="M 72 396.918362 
L 76.501576 396.919605 
L 81.003152 396.823264 
L 85.504727 396.719819 
L 90.006303 396.611708 
L 94.507879 396.499808 
L 99.009455 396.384444 
L 103.51103 396.26578 
L 108.012606 396.143882 
L 112.514182 396.018764 
L 117.015758 395.890422 
L 121.517333 395.758831 
L 126.018909 395.623953 
L 130.520485 395.485742 
L 135.022061 395.344154 
L 139.523636 395.199134 
L 144.025212 395.050623 
L 148.526788 394.898566 
L 153.028364 394.742896 
L 157.529939 394.583544 
L 162.031515 394.420438 
L 166.533091 394.253501 
L 171.034667 394.082657 
L 175.536242 393.907824 
L 180.037818 393.728917 
L 184.539394 393.545845 
L 189.04097 393.358517 
L 193.542545 393.166833 
L 198.044121 392.970684 
L 202.545697 392.769962 
L 207.047273 392.564551 
L 211.548848 392.354334 
L 216.050424 392.139185 
L 220.552 391.918971 
L 225.053576 391.693552 
L 229.555152 391.462781 
L 234.056727 391.226502 
L 238.558303 390.984552 
L 243.059879 390.736758 
L 247.561455 390.482941 
L 252.06303 390.222914 
L 256.564606 389.956475 
L 261.066182 389.683412 
L 265.567758 389.403503 
L 270.069333 389.116512 
L 274.570909 388.822189 
L 279.072485 388.520267 
L 283.574061 388.210462 
L 288.075636 387.892475 
L 292.577212 387.56599 
L 297.078788 387.230672 
L 301.580364 386.886162 
L 306.081939 386.532074 
L 310.583515 386.167995 
L 315.085091 385.79349 
L 319.586667 385.408091 
L 324.088242 385.011297 
L 328.589818 384.602572 
L 333.091394 384.181339 
L 337.59297 383.746978 
L 342.094545 383.298821 
L 346.596121 382.836135 
L 351.097697 382.358124 
L 355.599273 381.863933 
L 360.100848 381.352635 
L 364.602424 380.823216 
L 369.104 380.274567 
L 373.605576 379.705471 
L 378.107152 379.114593 
L 382.608727 378.500457 
L 387.110303 377.861434 
L 391.611879 377.195711 
L 396.113455 376.501272 
L 400.61503 375.775869 
L 405.116606 375.01699 
L 409.618182 374.221791 
L 414.119758 373.387043 
L 418.621333 372.509074 
L 423.122909 371.583699 
L 427.624485 370.606111 
L 432.126061 369.570733 
L 436.627636 368.471026 
L 441.129212 367.299321 
L 445.630788 366.046544 
L 450.132364 364.701847 
L 454.633939 363.252134 
L 459.135515 361.681407 
L 463.637091 359.969825 
L 468.138667 358.092334 
L 472.640242 356.016703 
L 477.141818 353.701085 
L 481.643394 351.089584 
L 486.14497 348.10439 
L 490.646545 344.631441 
L 495.148121 340.494158 
L 499.649697 335.408918 
L 504.151273 328.874879 
L 508.652848 319.834002 
L 513.154424 305.112114 
" clip-path="url(#pf462e9793b)" style="fill: none; stroke: #1f77b4; stroke-width: 1.5; stroke-linecap: square"/>
   </g>
   <g id="patch_13">
    <path d="M 72 396.93913 
L 72 300.521739 
" style="fill: none; stroke: #000000; stroke-width: 0.8; stroke-linejoin: miter; stroke-linecap: square"/>
   </g>
   <g id="patch_14">
    <path d="M 518.4 396.93913 
L 518.4 300.521739 
" style="fill: none; stroke: #000000; stroke-width: 0.8; stroke-linejoin: miter; stroke-linecap: square"/>
   </g>
   <g id="patch_15">
    <path d="M 72 396.93913 
L 518.4 396.93913 
" style="fill: none; stroke: #000000; stroke-width: 0.8; stroke-linejoin: miter; stroke-linecap: square"/>
   </g>
   <g id="patch_16">
    <path d="M 72 300.521739 
L 518.4 300.521739 
" style="fill: none; stroke: #000000; stroke-width: 0.8; stroke-linejoin: miter; stroke-linecap: square"/>
   </g>
   <g id="text_13">
    <!-- Front Spar -->
    <g transform="translate(264.358125 294.521739)scale(0.12 -0.12)">
     <defs>
      <path id="DejaVuSans-46" d="M 628 4666 
L 3309 4666 
L 3309 4134 
L 1259 4134 
L 1259 2759 
L 3109 2759 
L 3109 2228 
L 1259 2228 
L 1259 0 
L 628 0 
L 628 4666 
z
" transform="scale(0.015625)"/>
      <path id="DejaVuSans-70" d="M 1159 525 
L 1159 -1331 
L 581 -1331 
L 581 3500 
L 1159 3500 
L 1159 2969 
Q 1341 3281 1617 3432 
Q 1894 3584 2278 3584 
Q 2916 3584 3314 3078 
Q 3713 2572 3713 1747 
Q 3713 922 3314 415 
Q 2916 -91 2278 -91 
Q 1894 -91 1617 61 
Q 1341 213 1159 525 
z
M 3116 1747 
Q 3116 2381 2855 2742 
Q 2594 3103 2138 3103 
Q 1681 3103 1420 2742 
Q 1159 2381 1159 1747 
Q 1159 1113 1420 752 
Q 1681 391 2138 391 
Q 2594 391 2855 752 
Q 3116 1113 3116 1747 
z
" transform="scale(0.015625)"/>
     </defs>
     <use xlink:href="#DejaVuSans-46"/>
     <use xlink:href="#DejaVuSans-72" x="50.269531"/>
     <use xlink:href="#DejaVuSans-6f" x="89.132812"/>
     <use xlink:href="#DejaVuSans-6e" x="150.314453"/>
     <use xlink:href="#DejaVuSans-74" x="213.693359"/>
     <use xlink:href="#DejaVuSans-20" x="252.902344"/>
     <use xlink:href="#DejaVuSans-53" x="284.689453"/>
     <use xlink:href="#DejaVuSans-70" x="348.166016"/>
     <use xlink:href="#DejaVuSans-61" x="411.642578"/>
     <use xlink:href="#DejaVuSans-72" x="472.921875"/>
    </g>
   </g>
  </g>
  <g id="axes_4">
   <g id="patch_17">
    <path d="M 72 512.64 
L 518.4 512.64 
L 518.4 416.222609 
L 72 416.222609 
z
" style="fill: #ffffff"/>
   </g>
   <g id="matplotlib.axis_7">
    <g id="xtick_22">
     <g id="line2d_77">
      <path d="M 72 512.64 
L 72 416.222609 
" clip-path="url(#pde8e87c02f)" style="fill: none; stroke: #b0b0b0; stroke-width: 0.8; stroke-linecap: square"/>
     </g>
     <g id="line2d_78">
      <g>
       <use xlink:href="#m42f3f3e54d" x="72" y="512.64" style="stroke: #000000; stroke-width: 0.8"/>
      </g>
     </g>
     <g id="text_14">
      <!-- 0 -->
      <g transform="translate(68.81875 527.238438)scale(0.1 -0.1)">
       <use xlink:href="#DejaVuSans-30"/>
      </g>
     </g>
    </g>
    <g id="xtick_23">
     <g id="line2d_79">
      <path d="M 146.4 512.64 
L 146.4 416.222609 
" clip-path="url(#pde8e87c02f)" style="fill: none; stroke: #b0b0b0; stroke-width: 0.8; stroke-linecap: square"/>
     </g>
     <g id="line2d_80">
      <g>
       <use xlink:href="#m42f3f3e54d" x="146.4" y="512.64" style="stroke: #000000; stroke-width: 0.8"/>
      </g>
     </g>
     <g id="text_15">
      <!-- 2 -->
      <g transform="translate(143.21875 527.238438)scale(0.1 -0.1)">
       <use xlink:href="#DejaVuSans-32"/>
      </g>
     </g>
    </g>
    <g id="xtick_24">
     <g id="line2d_81">
      <path d="M 220.8 512.64 
L 220.8 416.222609 
" clip-path="url(#pde8e87c02f)" style="fill: none; stroke: #b0b0b0; stroke-width: 0.8; stroke-linecap: square"/>
     </g>
     <g id="line2d_82">
      <g>
       <use xlink:href="#m42f3f3e54d" x="220.8" y="512.64" style="stroke: #000000; stroke-width: 0.8"/>
      </g>
     </g>
     <g id="text_16">
      <!-- 4 -->
      <g transform="translate(217.61875 527.238438)scale(0.1 -0.1)">
       <defs>
        <path id="DejaVuSans-34" d="M 2419 4116 
L 825 1625 
L 2419 1625 
L 2419 4116 
z
M 2253 4666 
L 3047 4666 
L 3047 1625 
L 3713 1625 
L 3713 1100 
L 3047 1100 
L 3047 0 
L 2419 0 
L 2419 1100 
L 313 1100 
L 313 1709 
L 2253 4666 
z
" transform="scale(0.015625)"/>
       </defs>
       <use xlink:href="#DejaVuSans-34"/>
      </g>
     </g>
    </g>
    <g id="xtick_25">
     <g id="line2d_83">
      <path d="M 295.2 512.64 
L 295.2 416.222609 
" clip-path="url(#pde8e87c02f)" style="fill: none; stroke: #b0b0b0; stroke-width: 0.8; stroke-linecap: square"/>
     </g>
     <g id="line2d_84">
      <g>
       <use xlink:href="#m42f3f3e54d" x="295.2" y="512.64" style="stroke: #000000; stroke-width: 0.8"/>
      </g>
     </g>
     <g id="text_17">
      <!-- 6 -->
      <g transform="translate(292.01875 527.238438)scale(0.1 -0.1)">
       <defs>
        <path id="DejaVuSans-36" d="M 2113 2584 
Q 1688 2584 1439 2293 
Q 1191 2003 1191 1497 
Q 1191 994 1439 701 
Q 1688 409 2113 409 
Q 2538 409 2786 701 
Q 3034 994 3034 1497 
Q 3034 2003 2786 2293 
Q 2538 2584 2113 2584 
z
M 3366 4563 
L 3366 3988 
Q 3128 4100 2886 4159 
Q 2644 4219 2406 4219 
Q 1781 4219 1451 3797 
Q 1122 3375 1075 2522 
Q 1259 2794 1537 2939 
Q 1816 3084 2150 3084 
Q 2853 3084 3261 2657 
Q 3669 2231 3669 1497 
Q 3669 778 3244 343 
Q 2819 -91 2113 -91 
Q 1303 -91 875 529 
Q 447 1150 447 2328 
Q 447 3434 972 4092 
Q 1497 4750 2381 4750 
Q 2619 4750 2861 4703 
Q 3103 4656 3366 4563 
z
" transform="scale(0.015625)"/>
       </defs>
       <use xlink:href="#DejaVuSans-36"/>
      </g>
     </g>
    </g>
    <g id="xtick_26">
     <g id="line2d_85">
      <path d="M 369.6 512.64 
L 369.6 416.222609 
" clip-path="url(#pde8e87c02f)" style="fill: none; stroke: #b0b0b0; stroke-width: 0.8; stroke-linecap: square"/>
     </g>
     <g id="line2d_86">
      <g>
       <use xlink:href="#m42f3f3e54d" x="369.6" y="512.64" style="stroke: #000000; stroke-width: 0.8"/>
      </g>
     </g>
     <g id="text_18">
      <!-- 8 -->
      <g transform="translate(366.41875 527.238438)scale(0.1 -0.1)">
       <defs>
        <path id="DejaVuSans-38" d="M 2034 2216 
Q 1584 2216 1326 1975 
Q 1069 1734 1069 1313 
Q 1069 891 1326 650 
Q 1584 409 2034 409 
Q 2484 409 2743 651 
Q 3003 894 3003 1313 
Q 3003 1734 2745 1975 
Q 2488 2216 2034 2216 
z
M 1403 2484 
Q 997 2584 770 2862 
Q 544 3141 544 3541 
Q 544 4100 942 4425 
Q 1341 4750 2034 4750 
Q 2731 4750 3128 4425 
Q 3525 4100 3525 3541 
Q 3525 3141 3298 2862 
Q 3072 2584 2669 2484 
Q 3125 2378 3379 2068 
Q 3634 1759 3634 1313 
Q 3634 634 3220 271 
Q 2806 -91 2034 -91 
Q 1263 -91 848 271 
Q 434 634 434 1313 
Q 434 1759 690 2068 
Q 947 2378 1403 2484 
z
M 1172 3481 
Q 1172 3119 1398 2916 
Q 1625 2713 2034 2713 
Q 2441 2713 2670 2916 
Q 2900 3119 2900 3481 
Q 2900 3844 2670 4047 
Q 2441 4250 2034 4250 
Q 1625 4250 1398 4047 
Q 1172 3844 1172 3481 
z
" transform="scale(0.015625)"/>
       </defs>
       <use xlink:href="#DejaVuSans-38"/>
      </g>
     </g>
    </g>
    <g id="xtick_27">
     <g id="line2d_87">
      <path d="M 444 512.64 
L 444 416.222609 
" clip-path="url(#pde8e87c02f)" style="fill: none; stroke: #b0b0b0; stroke-width: 0.8; stroke-linecap: square"/>
     </g>
     <g id="line2d_88">
      <g>
       <use xlink:href="#m42f3f3e54d" x="444" y="512.64" style="stroke: #000000; stroke-width: 0.8"/>
      </g>
     </g>
     <g id="text_19">
      <!-- 10 -->
      <g transform="translate(437.6375 527.238438)scale(0.1 -0.1)">
       <use xlink:href="#DejaVuSans-31"/>
       <use xlink:href="#DejaVuSans-30" x="63.623047"/>
      </g>
     </g>
    </g>
    <g id="xtick_28">
     <g id="line2d_89">
      <path d="M 518.4 512.64 
L 518.4 416.222609 
" clip-path="url(#pde8e87c02f)" style="fill: none; stroke: #b0b0b0; stroke-width: 0.8; stroke-linecap: square"/>
     </g>
     <g id="line2d_90">
      <g>
       <use xlink:href="#m42f3f3e54d" x="518.4" y="512.64" style="stroke: #000000; stroke-width: 0.8"/>
      </g>
     </g>
     <g id="text_20">
      <!-- 12 -->
      <g transform="translate(512.0375 527.238438)scale(0.1 -0.1)">
       <use xlink:href="#DejaVuSans-31"/>
       <use xlink:href="#DejaVuSans-32" x="63.623047"/>
      </g>
     </g>
    </g>
    <g id="text_21">
     <!-- Spanwise location [m] -->
     <g transform="translate(239.670312 540.916563)scale(0.1 -0.1)">
      <defs>
       <path id="DejaVuSans-77" d="M 269 3500 
L 844 3500 
L 1563 769 
L 2278 3500 
L 2956 3500 
L 3675 769 
L 4391 3500 
L 4966 3500 
L 4050 0 
L 3372 0 
L 2619 2869 
L 1863 0 
L 1184 0 
L 269 3500 
z
" transform="scale(0.015625)"/>
       <path id="DejaVuSans-73" d="M 2834 3397 
L 2834 2853 
Q 2591 2978 2328 3040 
Q 2066 3103 1784 3103 
Q 1356 3103 1142 2972 
Q 928 2841 928 2578 
Q 928 2378 1081 2264 
Q 1234 2150 1697 2047 
L 1894 2003 
Q 2506 1872 2764 1633 
Q 3022 1394 3022 966 
Q 3022 478 2636 193 
Q 2250 -91 1575 -91 
Q 1294 -91 989 -36 
Q 684 19 347 128 
L 347 722 
Q 666 556 975 473 
Q 1284 391 1588 391 
Q 1994 391 2212 530 
Q 2431 669 2431 922 
Q 2431 1156 2273 1281 
Q 2116 1406 1581 1522 
L 1381 1569 
Q 847 1681 609 1914 
Q 372 2147 372 2553 
Q 372 3047 722 3315 
Q 1072 3584 1716 3584 
Q 2034 3584 2315 3537 
Q 2597 3491 2834 3397 
z
" transform="scale(0.015625)"/>
       <path id="DejaVuSans-6c" d="M 603 4863 
L 1178 4863 
L 1178 0 
L 603 0 
L 603 4863 
z
" transform="scale(0.015625)"/>
       <path id="DejaVuSans-63" d="M 3122 3366 
L 3122 2828 
Q 2878 2963 2633 3030 
Q 2388 3097 2138 3097 
Q 1578 3097 1268 2742 
Q 959 2388 959 1747 
Q 959 1106 1268 751 
Q 1578 397 2138 397 
Q 2388 397 2633 464 
Q 2878 531 3122 666 
L 3122 134 
Q 2881 22 2623 -34 
Q 2366 -91 2075 -91 
Q 1284 -91 818 406 
Q 353 903 353 1747 
Q 353 2603 823 3093 
Q 1294 3584 2113 3584 
Q 2378 3584 2631 3529 
Q 2884 3475 3122 3366 
z
" transform="scale(0.015625)"/>
       <path id="DejaVuSans-6d" d="M 3328 2828 
Q 3544 3216 3844 3400 
Q 4144 3584 4550 3584 
Q 5097 3584 5394 3201 
Q 5691 2819 5691 2113 
L 5691 0 
L 5113 0 
L 5113 2094 
Q 5113 2597 4934 2840 
Q 4756 3084 4391 3084 
Q 3944 3084 3684 2787 
Q 3425 2491 3425 1978 
L 3425 0 
L 2847 0 
L 2847 2094 
Q 2847 2600 2669 2842 
Q 2491 3084 2119 3084 
Q 1678 3084 1418 2786 
Q 1159 2488 1159 1978 
L 1159 0 
L 581 0 
L 581 3500 
L 1159 3500 
L 1159 2956 
Q 1356 3278 1631 3431 
Q 1906 3584 2284 3584 
Q 2666 3584 2933 3390 
Q 3200 3197 3328 2828 
z
" transform="scale(0.015625)"/>
      </defs>
      <use xlink:href="#DejaVuSans-53"/>
      <use xlink:href="#DejaVuSans-70" x="63.476562"/>
      <use xlink:href="#DejaVuSans-61" x="126.953125"/>
      <use xlink:href="#DejaVuSans-6e" x="188.232422"/>
      <use xlink:href="#DejaVuSans-77" x="251.611328"/>
      <use xlink:href="#DejaVuSans-69" x="333.398438"/>
      <use xlink:href="#DejaVuSans-73" x="361.181641"/>
      <use xlink:href="#DejaVuSans-65" x="413.28125"/>
      <use xlink:href="#DejaVuSans-20" x="474.804688"/>
      <use xlink:href="#DejaVuSans-6c" x="506.591797"/>
      <use xlink:href="#DejaVuSans-6f" x="534.375"/>
      <use xlink:href="#DejaVuSans-63" x="595.556641"/>
      <use xlink:href="#DejaVuSans-61" x="650.537109"/>
      <use xlink:href="#DejaVuSans-74" x="711.816406"/>
      <use xlink:href="#DejaVuSans-69" x="751.025391"/>
      <use xlink:href="#DejaVuSans-6f" x="778.808594"/>
      <use xlink:href="#DejaVuSans-6e" x="839.990234"/>
      <use xlink:href="#DejaVuSans-20" x="903.369141"/>
      <use xlink:href="#DejaVuSans-5b" x="935.15625"/>
      <use xlink:href="#DejaVuSans-6d" x="974.169922"/>
      <use xlink:href="#DejaVuSans-5d" x="1071.582031"/>
     </g>
    </g>
   </g>
   <g id="matplotlib.axis_8">
    <g id="ytick_25">
     <g id="line2d_91">
      <path d="M 72 512.64 
L 518.4 512.64 
" clip-path="url(#pde8e87c02f)" style="fill: none; stroke: #b0b0b0; stroke-width: 0.8; stroke-linecap: square"/>
     </g>
     <g id="line2d_92">
      <g>
       <use xlink:href="#m7924d6f5e9" x="72" y="512.64" style="stroke: #000000; stroke-width: 0.8"/>
      </g>
     </g>
     <g id="text_22">
      <!-- $\mathdefault{10^{0}}$ -->
      <g transform="translate(47.4 516.439219)scale(0.1 -0.1)">
       <use xlink:href="#DejaVuSans-31" transform="translate(0 0.765625)"/>
       <use xlink:href="#DejaVuSans-30" transform="translate(63.623047 0.765625)"/>
       <use xlink:href="#DejaVuSans-30" transform="translate(128.203125 39.046875)scale(0.7)"/>
      </g>
     </g>
    </g>
    <g id="ytick_26">
     <g id="line2d_93">
      <path d="M 72 471.269237 
L 518.4 471.269237 
" clip-path="url(#pde8e87c02f)" style="fill: none; stroke: #b0b0b0; stroke-width: 0.8; stroke-linecap: square"/>
     </g>
     <g id="line2d_94">
      <g>
       <use xlink:href="#m7924d6f5e9" x="72" y="471.269237" style="stroke: #000000; stroke-width: 0.8"/>
      </g>
     </g>
     <g id="text_23">
      <!-- $\mathdefault{10^{1}}$ -->
      <g transform="translate(47.4 475.068456)scale(0.1 -0.1)">
       <use xlink:href="#DejaVuSans-31" transform="translate(0 0.684375)"/>
       <use xlink:href="#DejaVuSans-30" transform="translate(63.623047 0.684375)"/>
       <use xlink:href="#DejaVuSans-31" transform="translate(128.203125 38.965625)scale(0.7)"/>
      </g>
     </g>
    </g>
    <g id="ytick_27">
     <g id="line2d_95">
      <path d="M 72 429.898475 
L 518.4 429.898475 
" clip-path="url(#pde8e87c02f)" style="fill: none; stroke: #b0b0b0; stroke-width: 0.8; stroke-linecap: square"/>
     </g>
     <g id="line2d_96">
      <g>
       <use xlink:href="#m7924d6f5e9" x="72" y="429.898475" style="stroke: #000000; stroke-width: 0.8"/>
      </g>
     </g>
     <g id="text_24">
      <!-- $\mathdefault{10^{2}}$ -->
      <g transform="translate(47.4 433.697694)scale(0.1 -0.1)">
       <use xlink:href="#DejaVuSans-31" transform="translate(0 0.765625)"/>
       <use xlink:href="#DejaVuSans-30" transform="translate(63.623047 0.765625)"/>
       <use xlink:href="#DejaVuSans-32" transform="translate(128.203125 39.046875)scale(0.7)"/>
      </g>
     </g>
    </g>
    <g id="ytick_28">
     <g id="line2d_97">
      <g>
       <use xlink:href="#m9d66d98a82" x="72" y="500.18616" style="stroke: #000000; stroke-width: 0.6"/>
      </g>
     </g>
    </g>
    <g id="ytick_29">
     <g id="line2d_98">
      <g>
       <use xlink:href="#m9d66d98a82" x="72" y="492.90113" style="stroke: #000000; stroke-width: 0.6"/>
      </g>
     </g>
    </g>
    <g id="ytick_30">
     <g id="line2d_99">
      <g>
       <use xlink:href="#m9d66d98a82" x="72" y="487.732319" style="stroke: #000000; stroke-width: 0.6"/>
      </g>
     </g>
    </g>
    <g id="ytick_31">
     <g id="line2d_100">
      <g>
       <use xlink:href="#m9d66d98a82" x="72" y="483.723078" style="stroke: #000000; stroke-width: 0.6"/>
      </g>
     </g>
    </g>
    <g id="ytick_32">
     <g id="line2d_101">
      <g>
       <use xlink:href="#m9d66d98a82" x="72" y="480.447289" style="stroke: #000000; stroke-width: 0.6"/>
      </g>
     </g>
    </g>
    <g id="ytick_33">
     <g id="line2d_102">
      <g>
       <use xlink:href="#m9d66d98a82" x="72" y="477.67765" style="stroke: #000000; stroke-width: 0.6"/>
      </g>
     </g>
    </g>
    <g id="ytick_34">
     <g id="line2d_103">
      <g>
       <use xlink:href="#m9d66d98a82" x="72" y="475.278479" style="stroke: #000000; stroke-width: 0.6"/>
      </g>
     </g>
    </g>
    <g id="ytick_35">
     <g id="line2d_104">
      <g>
       <use xlink:href="#m9d66d98a82" x="72" y="473.16226" style="stroke: #000000; stroke-width: 0.6"/>
      </g>
     </g>
    </g>
    <g id="ytick_36">
     <g id="line2d_105">
      <g>
       <use xlink:href="#m9d66d98a82" x="72" y="458.815397" style="stroke: #000000; stroke-width: 0.6"/>
      </g>
     </g>
    </g>
    <g id="ytick_37">
     <g id="line2d_106">
      <g>
       <use xlink:href="#m9d66d98a82" x="72" y="451.530367" style="stroke: #000000; stroke-width: 0.6"/>
      </g>
     </g>
    </g>
    <g id="ytick_38">
     <g id="line2d_107">
      <g>
       <use xlink:href="#m9d66d98a82" x="72" y="446.361557" style="stroke: #000000; stroke-width: 0.6"/>
      </g>
     </g>
    </g>
    <g id="ytick_39">
     <g id="line2d_108">
      <g>
       <use xlink:href="#m9d66d98a82" x="72" y="442.352315" style="stroke: #000000; stroke-width: 0.6"/>
      </g>
     </g>
    </g>
    <g id="ytick_40">
     <g id="line2d_109">
      <g>
       <use xlink:href="#m9d66d98a82" x="72" y="439.076527" style="stroke: #000000; stroke-width: 0.6"/>
      </g>
     </g>
    </g>
    <g id="ytick_41">
     <g id="line2d_110">
      <g>
       <use xlink:href="#m9d66d98a82" x="72" y="436.306887" style="stroke: #000000; stroke-width: 0.6"/>
      </g>
     </g>
    </g>
    <g id="ytick_42">
     <g id="line2d_111">
      <g>
       <use xlink:href="#m9d66d98a82" x="72" y="433.907716" style="stroke: #000000; stroke-width: 0.6"/>
      </g>
     </g>
    </g>
    <g id="ytick_43">
     <g id="line2d_112">
      <g>
       <use xlink:href="#m9d66d98a82" x="72" y="431.791497" style="stroke: #000000; stroke-width: 0.6"/>
      </g>
     </g>
    </g>
    <g id="ytick_44">
     <g id="line2d_113">
      <g>
       <use xlink:href="#m9d66d98a82" x="72" y="417.444634" style="stroke: #000000; stroke-width: 0.6"/>
      </g>
     </g>
    </g>
    <g id="text_25">
     <!-- Margin of Safety [-] -->
     <g transform="translate(41.320312 512.796148)rotate(-90)scale(0.1 -0.1)">
      <use xlink:href="#DejaVuSans-4d"/>
      <use xlink:href="#DejaVuSans-61" x="86.279297"/>
      <use xlink:href="#DejaVuSans-72" x="147.558594"/>
      <use xlink:href="#DejaVuSans-67" x="186.921875"/>
      <use xlink:href="#DejaVuSans-69" x="250.398438"/>
      <use xlink:href="#DejaVuSans-6e" x="278.181641"/>
      <use xlink:href="#DejaVuSans-20" x="341.560547"/>
      <use xlink:href="#DejaVuSans-6f" x="373.347656"/>
      <use xlink:href="#DejaVuSans-66" x="434.529297"/>
      <use xlink:href="#DejaVuSans-20" x="469.734375"/>
      <use xlink:href="#DejaVuSans-53" x="501.521484"/>
      <use xlink:href="#DejaVuSans-61" x="564.998047"/>
      <use xlink:href="#DejaVuSans-66" x="626.277344"/>
      <use xlink:href="#DejaVuSans-65" x="661.482422"/>
      <use xlink:href="#DejaVuSans-74" x="723.005859"/>
      <use xlink:href="#DejaVuSans-79" x="762.214844"/>
      <use xlink:href="#DejaVuSans-20" x="821.394531"/>
      <use xlink:href="#DejaVuSans-5b" x="853.181641"/>
      <use xlink:href="#DejaVuSans-2d" x="892.195312"/>
      <use xlink:href="#DejaVuSans-5d" x="928.279297"/>
     </g>
    </g>
   </g>
   <g id="line2d_114">
    <path d="M 72 511.616651 
L 76.501576 511.694836 
L 81.003152 511.626139 
L 85.504727 511.548315 
L 90.006303 511.465126 
L 94.507879 511.377858 
L 99.009455 511.287004 
L 103.51103 511.192815 
L 108.012606 511.0954 
L 112.514182 510.994794 
L 117.015758 510.891011 
L 121.517333 510.784034 
L 126.018909 510.673829 
L 130.520485 510.560356 
L 135.022061 510.443576 
L 139.523636 510.323438 
L 144.025212 510.199888 
L 148.526788 510.072878 
L 153.028364 509.942347 
L 157.529939 509.808228 
L 162.031515 509.670456 
L 166.533091 509.528961 
L 171.034667 509.383671 
L 175.536242 509.234511 
L 180.037818 509.081404 
L 184.539394 508.924265 
L 189.04097 508.763011 
L 193.542545 508.597549 
L 198.044121 508.427773 
L 202.545697 508.253582 
L 207.047273 508.074869 
L 211.548848 507.891521 
L 216.050424 507.70342 
L 220.552 507.51044 
L 225.053576 507.312444 
L 229.555152 507.109293 
L 234.056727 506.900837 
L 238.558303 506.686914 
L 243.059879 506.467357 
L 247.561455 506.241993 
L 252.06303 506.010639 
L 256.564606 505.773097 
L 261.066182 505.529157 
L 265.567758 505.278601 
L 270.069333 505.021196 
L 274.570909 504.756691 
L 279.072485 504.484821 
L 283.574061 504.2053 
L 288.075636 503.917828 
L 292.577212 503.622087 
L 297.078788 503.31774 
L 301.580364 503.004424 
L 306.081939 502.681744 
L 310.583515 502.349281 
L 315.085091 502.006587 
L 319.586667 501.653187 
L 324.088242 501.288565 
L 328.589818 500.912172 
L 333.091394 500.523411 
L 337.59297 500.121646 
L 342.094545 499.706181 
L 346.596121 499.276257 
L 351.097697 498.831044 
L 355.599273 498.369653 
L 360.100848 497.891116 
L 364.602424 497.394374 
L 369.104 496.878266 
L 373.605576 496.341518 
L 378.107152 495.782728 
L 382.608727 495.200346 
L 387.110303 494.592661 
L 391.611879 493.957765 
L 396.113455 493.293535 
L 400.61503 492.597606 
L 405.116606 491.867334 
L 409.618182 491.099727 
L 414.119758 490.29138 
L 418.621333 489.438431 
L 423.122909 488.536477 
L 427.624485 487.580467 
L 432.126061 486.564539 
L 436.627636 485.481831 
L 441.129212 484.324298 
L 445.630788 483.082436 
L 450.132364 481.744899 
L 454.633939 480.298003 
L 459.135515 478.725061 
L 463.637091 477.005406 
L 468.138667 475.112968 
L 472.640242 473.01426 
L 477.141818 470.665886 
L 481.643394 468.00999 
L 486.14497 464.966121 
L 490.646545 461.416375 
L 495.148121 457.178259 
L 499.649697 451.958873 
L 504.151273 445.241384 
L 508.652848 435.934754 
L 513.154424 420.768905 
" clip-path="url(#pde8e87c02f)" style="fill: none; stroke: #1f77b4; stroke-width: 1.5; stroke-linecap: square"/>
   </g>
   <g id="patch_18">
    <path d="M 72 512.64 
L 72 416.222609 
" style="fill: none; stroke: #000000; stroke-width: 0.8; stroke-linejoin: miter; stroke-linecap: square"/>
   </g>
   <g id="patch_19">
    <path d="M 518.4 512.64 
L 518.4 416.222609 
" style="fill: none; stroke: #000000; stroke-width: 0.8; stroke-linejoin: miter; stroke-linecap: square"/>
   </g>
   <g id="patch_20">
    <path d="M 72 512.64 
L 518.4 512.64 
" style="fill: none; stroke: #000000; stroke-width: 0.8; stroke-linejoin: miter; stroke-linecap: square"/>
   </g>
   <g id="patch_21">
    <path d="M 72 416.222609 
L 518.4 416.222609 
" style="fill: none; stroke: #000000; stroke-width: 0.8; stroke-linejoin: miter; stroke-linecap: square"/>
   </g>
   <g id="text_26">
    <!-- Rear Spar -->
    <g transform="translate(265.797188 410.222609)scale(0.12 -0.12)">
     <defs>
      <path id="DejaVuSans-52" d="M 2841 2188 
Q 3044 2119 3236 1894 
Q 3428 1669 3622 1275 
L 4263 0 
L 3584 0 
L 2988 1197 
Q 2756 1666 2539 1819 
Q 2322 1972 1947 1972 
L 1259 1972 
L 1259 0 
L 628 0 
L 628 4666 
L 2053 4666 
Q 2853 4666 3247 4331 
Q 3641 3997 3641 3322 
Q 3641 2881 3436 2590 
Q 3231 2300 2841 2188 
z
M 1259 4147 
L 1259 2491 
L 2053 2491 
Q 2509 2491 2742 2702 
Q 2975 2913 2975 3322 
Q 2975 3731 2742 3939 
Q 2509 4147 2053 4147 
L 1259 4147 
z
" transform="scale(0.015625)"/>
     </defs>
     <use xlink:href="#DejaVuSans-52"/>
     <use xlink:href="#DejaVuSans-65" x="64.982422"/>
     <use xlink:href="#DejaVuSans-61" x="126.505859"/>
     <use xlink:href="#DejaVuSans-72" x="187.785156"/>
     <use xlink:href="#DejaVuSans-20" x="228.898438"/>
     <use xlink:href="#DejaVuSans-53" x="260.685547"/>
     <use xlink:href="#DejaVuSans-70" x="324.162109"/>
     <use xlink:href="#DejaVuSans-61" x="387.638672"/>
     <use xlink:href="#DejaVuSans-72" x="448.917969"/>
    </g>
   </g>
  </g>
 </g>
 <defs>
  <clipPath id="p89491604a0">
   <rect x="72" y="69.12" width="446.4" height="96.417391"/>
  </clipPath>
  <clipPath id="p7094178680">
   <rect x="72" y="184.82087" width="446.4" height="96.417391"/>
  </clipPath>
  <clipPath id="pf462e9793b">
   <rect x="72" y="300.521739" width="446.4" height="96.417391"/>
  </clipPath>
  <clipPath id="pde8e87c02f">
   <rect x="72" y="416.222609" width="446.4" height="96.417391"/>
  </clipPath>
 </defs>
</svg>
